<?xml version="1.0" encoding="UTF-8"?><svg id="b" xmlns="http://www.w3.org/2000/svg" viewBox="0 0 218.8 58.8"><g id="c"><path d="M79.8,54.1l-32.5,3C29,58.3,3.7,53,1.8,31.1c6.3,4.6,12.8,10.1,21,11-2.6-4.1-4.6-8.1-4.4-13.1s0-3.2,1.4-2.9c.7,4.4,7.3,13.9,12,11.5S51.5,5.9,58.8,2.1l21,52Z" style="fill:#42210c; stroke:#f15a24; stroke-miterlimit:10; stroke-width:3px;"/><path d="M186,37.9c5.6,3.3,11.1-8.4,13.3-11.8,2.1,6-1.2,10.8-3.5,16,1,1,8.5-2.6,10-3.5,4.2-2.3,6.8-5.7,11-7.5-7.1,34.9-52.1,25.2-78,23L158.8,3.1c1.9-.3,2.9,1.3,4,2.5,3,3.1,6.7,8.1,9.4,11.6s12.7,20.1,13.8,20.7Z" style="fill:#42210c; stroke:#f15a24; stroke-miterlimit:10; stroke-width:3px;"/></g></svg>