<svg id="Layer_1" data-name="Layer 1" xmlns="http://www.w3.org/2000/svg" width="143.23" height="48.98" viewBox="0 0 143.23 48.98"><defs><style>.cls-1{fill:#42210b;stroke:#f15a24;stroke-linecap:round;stroke-linejoin:round;stroke-width:2px;}</style></defs><title>halloween graphics</title><path class="cls-1" d="M33.35,33.61c11.48,0,21.89,5.48,29.54,14.37a32.61,32.61,0,1,0-58.75-.39C11.77,38.93,22,33.61,33.35,33.61Z"/><path class="cls-1" d="M109.35,40.8c11.48,0,21.89,2.74,29.54,7.18a10.3,10.3,0,0,0,3.33-7.18c0-9-14.6-16.31-32.61-16.31S77,31.79,77,40.8a10.18,10.18,0,0,0,3.14,7C87.77,43.46,98,40.8,109.35,40.8Z"/></svg>