<svg id="Layer_1" data-name="Layer 1" xmlns="http://www.w3.org/2000/svg" width="152.35" height="62.31" viewBox="0 0 152.35 62.31"><defs><style>.cls-1{fill:#42210b;}.cls-2{fill:#f15a24;}</style></defs><title>halloween graphics</title><path class="cls-1" d="M108.38,60.75A25.15,25.15,0,0,1,97.86,54.5a26.32,26.32,0,0,1-7.38-20.8,35,35,0,0,1,10.43-22.2A34.85,34.85,0,0,1,125.2,1a26.16,26.16,0,0,1,18.7,7.45c8.9,8.9,9.93,23.22,2.77,35.44a20.94,20.94,0,1,0-38.29,16.86Z"/><path class="cls-2" d="M125.2,2a25.16,25.16,0,0,1,18,7.16c8.15,8.15,9.43,21.06,3.58,32.48A21.94,21.94,0,0,0,106.55,59a23.94,23.94,0,0,1-8-5.26c-10.62-10.62-9.25-29.27,3.05-41.58A33.85,33.85,0,0,1,125.2,2m0-2a35.74,35.74,0,0,0-25,10.8C87.1,23.9,85.73,43.78,97.15,55.2a26.26,26.26,0,0,0,13.28,7.11,19.94,19.94,0,1,1,36-16.07c8.4-12.64,8-28.69-1.78-38.5A27.08,27.08,0,0,0,125.2,0Z"/><path class="cls-1" d="M51.69,56.91a20.94,20.94,0,1,0-41.14-6.45c-11.81-12.69-12.83-31.28-2.1-42A26.16,26.16,0,0,1,27.16,1,34.85,34.85,0,0,1,51.45,11.5,35,35,0,0,1,61.88,33.7,26.32,26.32,0,0,1,54.5,54.5,24.48,24.48,0,0,1,51.69,56.91Z"/><path class="cls-2" d="M27.16,2A33.85,33.85,0,0,1,50.74,12.21c12.3,12.3,13.67,31,3.05,41.58l-.56.55A21.94,21.94,0,0,0,9.79,48.07,33.47,33.47,0,0,1,2.07,29.18a25.33,25.33,0,0,1,7.09-20A25.16,25.16,0,0,1,27.16,2m0-2A27.08,27.08,0,0,0,7.75,7.75C-3.67,19.17-2.31,39,10.8,52.15c.26.26.53.51.8.76,0-.49-.06-1-.06-1.5a19.94,19.94,0,1,1,38.25,7.92A25.73,25.73,0,0,0,55.2,55.2C66.62,43.78,65.26,23.9,52.15,10.8A35.75,35.75,0,0,0,27.16,0Z"/></svg>