<?xml version="1.0" encoding="UTF-8"?><svg id="b" xmlns="http://www.w3.org/2000/svg" viewBox="0 0 159.4 68.2"><g id="c"><path d="M64.1,25.1l-19,8c-1.6,2.1,13.9,16.9,15.1,20.5,0,1.7-13.6,12.1-16.5,12.6l-14.2-19.1c-3.2-.5-12.1,10.8-15.3,9-.3-4.1-8.8-11-8.9-13.5s9-8.8,10.8-11.8L2.1,15.6,14.7,2.2l17,17.8,20.9-12.7,11.5,17.8Z" style="fill:#42210c; stroke:#f15a24; stroke-miterlimit:10; stroke-width:3px;"/><path d="M150.7,8.5c2,2,3.7,5.3,6.3,7.1l-13.9,14.2c-1,3.7,9.5,7.5,9.9,11.9s-3,4.3-4.5,6.5-4,7.1-4.6,7.5c-3.3,2.2-10.6-8-14.4-8.4l-15.2,19-16-11c-1-1.6,1.3-3.7,2.2-4.9,4.2-5.7,9.5-10.6,13.4-16.6l-20-8.5,10-16.5c3.7-2.3,18.1,10.4,22.5,11.6l16.1-18c.6-.1,7.1,5.3,8,6.3Z" style="fill:#42210c; stroke:#f15a24; stroke-miterlimit:10; stroke-width:3px;"/></g></svg>