<svg id="Layer_1" data-name="Layer 1" xmlns="http://www.w3.org/2000/svg" width="161.83" height="68.89" viewBox="0 0 161.83 68.89"><defs><style>.cls-1{fill:#42210b;}.cls-2{fill:#f15a24;}</style></defs><title>halloween graphics</title><path class="cls-1" d="M45.22,67.73C44,60.66,40,55.82,35.33,55.82c-4.14,0-7.84,3.9-9.43,9.83a40.34,40.34,0,0,1-13.37-8.88c-14-14-15.43-35.28-3.24-47.48A28.84,28.84,0,0,1,28.44,1c-10.62,12.49-11.11,30.27-.79,40.6a26.34,26.34,0,0,0,18.83,7.53,34,34,0,0,0,21.77-8.32A28.78,28.78,0,0,1,60,60,28.22,28.22,0,0,1,45.22,67.73Z"/><path class="cls-2" d="M26.2,2.24a34.74,34.74,0,0,0-7,18.74,27.44,27.44,0,0,0,7.77,21.37,27.33,27.33,0,0,0,19.54,7.82,34.75,34.75,0,0,0,20.57-7.09A27.5,27.5,0,0,1,59.3,59.3,27.11,27.11,0,0,1,46,66.54c-1.5-7-5.71-11.72-10.68-11.72-4.34,0-8.21,3.72-10.07,9.48a39.47,39.47,0,0,1-12-8.24C-.36,42.47-1.81,21.8,10,10A27.54,27.54,0,0,1,26.2,2.24M30.06,0A30,30,0,0,0,8.58,8.58C-4,21.19-2.57,43.08,11.82,57.47A40.91,40.91,0,0,0,26.6,67c1.27-5.93,4.7-10.17,8.73-10.17,4.45,0,8.16,5.17,9.05,12.07a29.29,29.29,0,0,0,16.33-8.17,30.07,30.07,0,0,0,8.58-22.14,33.15,33.15,0,0,1-22.8,9.6,25.28,25.28,0,0,1-18.12-7.24C17.83,30.41,18.94,12.2,30.73,0Z"/><path class="cls-1" d="M132,67c-1.36-6.62-5.27-11.15-9.75-11.15s-8.27,4.41-9.68,10.86A27.63,27.63,0,0,1,101.82,60a28.8,28.8,0,0,1-8.25-19.16,34,34,0,0,0,21.77,8.31h0a26.34,26.34,0,0,0,18.83-7.52C144.5,31.31,144,13.53,133.39,1a28.84,28.84,0,0,1,19.15,8.25c12.2,12.2,10.74,33.5-3.24,47.48A39.51,39.51,0,0,1,132,67Z"/><path class="cls-2" d="M135.63,2.24A27.55,27.55,0,0,1,151.83,10c11.81,11.81,10.35,32.47-3.24,46.06a38.65,38.65,0,0,1-15.82,9.65c-1.65-6.51-5.77-10.89-10.48-10.89S113.61,59,111.9,65.36a26.55,26.55,0,0,1-9.37-6.06,27.49,27.49,0,0,1-7.76-16.21,34.75,34.75,0,0,0,20.57,7.09,27.33,27.33,0,0,0,19.54-7.82A27.44,27.44,0,0,0,142.65,21a34.74,34.74,0,0,0-7-18.74M131.77,0h-.66c11.79,12.2,12.89,30.4,2.37,40.93a25.29,25.29,0,0,1-18.12,7.24,33.15,33.15,0,0,1-22.8-9.6,30.07,30.07,0,0,0,8.58,22.14A28.87,28.87,0,0,0,113.38,68c1.09-6.43,4.66-11.15,8.91-11.15s7.92,4.84,9,11.4A40.4,40.4,0,0,0,150,57.47c14.4-14.4,15.85-36.28,3.24-48.89A30,30,0,0,0,131.77,0Z"/></svg>