<svg id="Layer_1" data-name="Layer 1" xmlns="http://www.w3.org/2000/svg" width="148.16" height="51" viewBox="0 0 148.16 51"><defs><style>.cls-1{fill:#42210b;stroke:#f15a24;stroke-linecap:round;stroke-linejoin:round;stroke-width:2px;}</style></defs><title>halloween graphics</title><path class="cls-1" d="M7.64,1.75c8.1,7.41,32,28.24,50.06,30.44a2.23,2.23,0,0,1,1,4c-6.63,5-18.85,13-30.24,13.82a15.33,15.33,0,0,0,.78-4.91c0-6-3.31-11-7.4-11s-7.4,4.9-7.4,11c0,.32,0,.64,0,1A21.93,21.93,0,0,1,9.94,41C-2,23.05.67,9.16,3.05,2.86A2.85,2.85,0,0,1,7.64,1.75Z"/><path class="cls-1" d="M140.52,1.75c-8.1,7.41-32,28.24-50.06,30.44a2.23,2.23,0,0,0-1,4c6.63,5,18.85,13,30.24,13.82a15.33,15.33,0,0,1-.78-4.91c0-6,3.31-11,7.4-11s7.4,4.9,7.4,11c0,.32,0,.64,0,1A21.93,21.93,0,0,0,138.23,41c11.94-17.92,9.27-31.81,6.89-38.11A2.85,2.85,0,0,0,140.52,1.75Z"/></svg>