<?xml version="1.0" encoding="UTF-8"?><svg id="b" xmlns="http://www.w3.org/2000/svg" viewBox="0 0 179.9 91"><g id="c"><path d="M121.5,38.4c-.4,16,22.4,11.2,25.4-1.2s-1.9-8.4.6-12.4c4.8-.7,28.6-18.8,30.1-17.9s0,5.8-.6,7.5c-4.8,14.7-17.8,39.4-27.9,51.1s-10.3,10.7-11,11c-1.9.7-3.6-5.7-5.4-6.5-6-5.8-17.2-5.7-19.6,3.5s.8,12.9-2.1,13.9c-10,3.3-25.1,1.5-35.7,2.2-1.3-.4-1.5-7.3-2.1-9.1-3.9-12.1-18.8-19.2-23.5-4l-1.3-.2c-17.9-6.4-30-23.9-37.2-40.9S2.7,13.5,1.7,6.7.9,1.7,3.9,1.5l30.2,20.9c1.9,3-6.9,9.9,0,17s19.4,7.5,23.6.6.3-4.9,2.4-6.5c19.5,7.6,41,6.7,61.5,5Z" style="fill:#42210c; stroke:#f15a24; stroke-miterlimit:10; stroke-width:3px;"/></g></svg>