<?xml version="1.0" encoding="UTF-8"?><svg id="b" xmlns="http://www.w3.org/2000/svg" viewBox="0 0 185 73.2"><g id="c"><path d="M70.6,69.6v-15.5c-1.3-1.4-2.6-2.7-4.3-3.7-2.5-1.5-19.3-9.5-21.3-9.8s-1.6-.3-2.3,0l-3.6,13.9c-11.9-7.2-22.2-16.6-29.3-28.7S.7,8.9,1.6,4.1s3.4-2.8,6.1-2.1c8.8,2.4,20.5,9.4,30.4,12.6,21.7,6.9,45.3,10.3,68,11.1,2.1,0,4-.4,6-1.1l1.4,1.4c-1.1,2.6-2,15.8.7,16.4s23-7.6,25-9.9c4.4-5-3.1-8.9,4.8-14.2,3.5-2.4,32.2-15.7,35.7-16.4,8.8-1.6.5,14-1.4,17.6-7.8,14.8-27.4,36-42.2,43.8-20.1,10.5-43.6,9-65.3,6.2Z" style="fill:#42210c; stroke:#f15a24; stroke-miterlimit:10; stroke-width:3px;"/></g></svg>