<svg id="Layer_1" data-name="Layer 1" xmlns="http://www.w3.org/2000/svg" width="175.08" height="86.16" viewBox="0 0 175.08 86.16"><defs><style>.cls-1{fill:#42210b;}.cls-2{fill:#f15a24;}</style></defs><title>halloween graphics</title><path class="cls-1" d="M87.54,85.16C40,85.16,1.18,48.25,1,2.81c13.26,16.09,32.55,28.11,55.55,34V60.34c0,1.93,1.7,3.13,3.63,3.13H78.9c1.93,0,3.63-1.2,3.63-3.13V40.78c2,.12,4.41.18,6.58.18,1.09,0,2.42,0,3.42-.06V60.34c0,1.93,1.7,3.13,3.63,3.13H114.9c1.93,0,3.63-1.2,3.63-3.13V37.63c22-5.15,41.65-16.13,55.46-31.09a80.65,80.65,0,0,1-25.71,54.83A88.12,88.12,0,0,1,87.54,85.16Z"/><path class="cls-2" d="M2,5.6c13.19,15,32.49,26.25,53.49,32V60.34c0,2.48,2.14,4.13,4.63,4.13H78.9c2.48,0,4.63-1.65,4.63-4.13V41.83c2,.08,3.73.13,5.58.13l2.42,0V60.34c0,2.48,2.14,4.13,4.63,4.13H114.9c2.48,0,4.63-1.65,4.63-4.13V38.42c21-5,39.63-15.28,53.28-29.18a79.77,79.77,0,0,1-25.21,51.4A87.16,87.16,0,0,1,87.52,84.16c-46,0-83.75-35-85.49-78.56M0,0C0,.81,0,1.63,0,2.44,0,48.68,39.2,86.16,87.52,86.16c47.85,0,86.79-36.74,87.55-82.35-13.72,15.82-33.55,27.68-57.55,33v23.5c0,1.38-1.25,2.13-2.63,2.13H96.15c-1.37,0-2.63-.75-2.63-2.13V39.87c-1,.05-2.9.09-4.42.09-2.59,0-5.58-.08-7.58-.23V60.34c0,1.38-1.25,2.13-2.63,2.13H60.15c-1.37,0-2.63-.75-2.63-2.13V36.07C33.53,30,13.11,17,0,0ZM175,3.46h0Z"/></svg>