<svg id="Layer_1" data-name="Layer 1" xmlns="http://www.w3.org/2000/svg" width="174.99" height="86.16" viewBox="0 0 174.99 86.16"><defs><style>.cls-1{fill:#42210b;}.cls-2{fill:#f15a24;}</style></defs><title>halloween graphics</title><path class="cls-1" d="M87.5,85.16C39.93,85.16,1.21,48.26,1,2.81c11.26,13.68,27,24.35,45.61,31L58.53,75.34c.12.43.52.54,1,.54h0c.45,0,.84-.11,1-.55l9.9-35.81a131.33,131.33,0,0,0,18.72,1.39,131.61,131.61,0,0,0,17.12-1.1c3.47,16.67,7.28,35.44,7.32,35.63a1,1,0,0,0,.91.8h.07a1,1,0,0,0,.94-.66l14.92-41.4c17.3-5.93,32.29-15.46,43.53-27.65a80.62,80.62,0,0,1-25.68,54.83A88,88,0,0,1,87.5,85.16Z"/><path class="cls-2" d="M2.06,5.6C13.18,18.28,28.18,28.21,45.79,34.55L57.57,75.61a1.84,1.84,0,0,0,1.92,1.26h0a1.84,1.84,0,0,0,1.92-1.28l9.67-35a132.41,132.41,0,0,0,18,1.28,132.5,132.5,0,0,0,16.33-1c3.41,16.43,7.09,34.54,7.13,34.72a2,2,0,0,0,1.81,1.6h.15a2,2,0,0,0,1.88-1.32L131.14,35c16.3-5.66,30.55-14.5,41.57-25.74a79.72,79.72,0,0,1-25.18,51.4,87,87,0,0,1-60,23.53c-46,0-83.69-35-85.44-78.56M0,0C0,.81,0,1.63,0,2.44,0,48.68,39.18,86.16,87.5,86.16c47.85,0,86.71-36.74,87.48-82.35-11.29,13-27,23.36-45.4,29.59L114.49,75.25s-4-19.46-7.51-36.54A130,130,0,0,1,89.07,40a129.82,129.82,0,0,1-19.45-1.46L59.49,75.25,47.43,33C27.78,26.13,11.25,14.54,0,0ZM175,3.88h0Z"/></svg>