<?xml version="1.0" encoding="UTF-8"?><svg id="b" xmlns="http://www.w3.org/2000/svg" viewBox="0 0 254.2 71.1"><g id="c"><path d="M156.2,66.2c-5.3,4.7-15.4,4.5-20.7-.1s-6-10.8-11.4-10.6-6.5,15.2-20,14-15.3-16.1-23.1-16.1-10.4,7.5-16.1,10c-23.7,10.3-18.4-24.7-39.4-20.4-7.3,1.5-14.4,11.5-19,2.1S-2.3,9.6,6.2,4.5s12.1,22.7,13.3,29c7.1-3.4,13.6-7.7,22-5.5s8.6,16.5,16.6,21.5c1.4.3,16.7-15.1,24.9-14.8s16.6,13.8,21,16.8l1.5-.4c5.2-8.3,11.4-15.5,22.3-13.3s15.4,16.3,18.2,16.5c4.9.4,6.7-16.5,15.5-18.4s13.9,6.4,21,8.6c1.2-.9,9.4-23,12.3-27.2,5.5-7.6,14.9-3.3,19.7,2.7s5.6,12.4,10,10c4.5-2.4,11.9-26,19-28.1,9.4-2.9,10.4,8.6,8.3,15.4-3.4,11-16.1,30.7-29.5,28s-12-14.1-17-12.6c-9.5,9.2-3.3,27.6-21.6,28.3-9,.4-8.5-4.5-13.4-6.7-8.4-3.7-9.7,7.9-14.1,11.9Z" style="fill:#42210c; stroke:#f15a24; stroke-miterlimit:10; stroke-width:3px;"/></g></svg>