<svg id="Layer_1" data-name="Layer 1" xmlns="http://www.w3.org/2000/svg" width="174.96" height="86.11" viewBox="0 0 174.96 86.11"><defs><style>.cls-1{fill:#42210b;}.cls-2{fill:#f15a24;}</style></defs><title>halloween graphics</title><path class="cls-1" d="M87.78,85.11a87.83,87.83,0,0,1-11.21-.65V64.67A3.94,3.94,0,0,0,72.73,61H62.92a3.51,3.51,0,0,0-3.36,3.65V81a87.22,87.22,0,0,1-19-8V55.56A3.49,3.49,0,0,0,37.12,52H27.31a3.75,3.75,0,0,0-3.74,3.53v4.9C9.56,46.4,1,28.25,1,9.11c0-1.77.21-3.55.35-5.33A79.8,79.8,0,0,0,16.56,18.13V40.56A3.34,3.34,0,0,0,19.9,44h9.81a3.79,3.79,0,0,0,3.85-3.47V28.26a60,60,0,0,0,10,4.2V50.56c0,1.93,1.15,3.47,3.08,3.47h9.81a3.17,3.17,0,0,0,3.12-3.47V37.3a125.82,125.82,0,0,0,19,2.51V59.67A3.08,3.08,0,0,0,81.69,63h9.81a3,3,0,0,0,3.07-3.35V39.88a126.5,126.5,0,0,0,19-2.38V55.67A3.11,3.11,0,0,0,116.73,59h9.81c1.93,0,3-1.42,3-3.35V32.79c6-1.81,10-4,15-6.38v14A3.53,3.53,0,0,0,148,44h9.81a3.78,3.78,0,0,0,3.74-3.57V15.24c4-3.9,8.75-8.14,12.28-12.65.21,2.18.11,4.37.11,6.53,0,19.84-8.39,38.47-24.39,52.7V55.56a3.29,3.29,0,0,0-3.2-3.53h-9.81c-1.93,0-4,1.6-4,3.53v18.2a76.73,76.73,0,0,1-17,7.37V64.67A3.88,3.88,0,0,0,111.78,61H102a3.56,3.56,0,0,0-3.41,3.65V84.51A102.31,102.31,0,0,1,87.78,85.11Z"/><path class="cls-2" d="M173,5.16c.08,1.32-.09,2.64-.09,4,0,18.83-7.39,36.57-22.39,50.4v-4a4.29,4.29,0,0,0-4.2-4.53h-9.81c-2.48,0-5,2.05-5,4.53v17.6c-4,2.67-10,4.89-15,6.61V64.67A4.88,4.88,0,0,0,111.78,60H102a4.56,4.56,0,0,0-4.41,4.65V83.61a91.74,91.74,0,0,1-9.79.5,90.1,90.1,0,0,1-10.21-.55V64.67A4.93,4.93,0,0,0,72.73,60H62.92a4.51,4.51,0,0,0-4.36,4.65v15a81.8,81.8,0,0,1-17-7.28V55.56A4.49,4.49,0,0,0,37.12,51H27.31a4.75,4.75,0,0,0-4.74,4.53v2.51C9.56,44.45,2,27.23,2,9.11c0-.92.16-1.85.2-2.77A87.45,87.45,0,0,0,15.56,18.63V40.56A4.34,4.34,0,0,0,19.9,45h9.81a4.79,4.79,0,0,0,4.85-4.47V29.84a45,45,0,0,0,8,3.32V50.56C42.56,53,44.16,55,46.64,55h9.81a4.16,4.16,0,0,0,4.12-4.47v-12a148,148,0,0,0,17,2.22V59.67A4.07,4.07,0,0,0,81.69,64h9.81a4,4,0,0,0,4.07-4.35V40.82a148,148,0,0,0,17-2.1v17A4.11,4.11,0,0,0,116.73,60h9.81c2.48,0,4-1.87,4-4.35V33.49a81.92,81.92,0,0,0,13-5.44V40.45A4.53,4.53,0,0,0,148,45h9.81a4.78,4.78,0,0,0,4.74-4.57V15.7A79.57,79.57,0,0,0,173,5.16M174.55,0a98.67,98.67,0,0,1-14,14.76V40.45A2.78,2.78,0,0,1,157.83,43H148a2.53,2.53,0,0,1-2.46-2.57V24.73a103.15,103.15,0,0,1-17,7.35V55.67c0,1.38-.65,2.35-2,2.35h-9.81a2.12,2.12,0,0,1-2.17-2.35V36.26a146.29,146.29,0,0,1-21,2.67V59.67c0,1.38-.7,2.35-2.07,2.35H81.69a2.09,2.09,0,0,1-2.12-2.35V38.87a146.43,146.43,0,0,1-21-2.81v14.5A2.18,2.18,0,0,1,56.45,53H46.64c-1.37,0-2.08-1.09-2.08-2.47V31.77a48.91,48.91,0,0,1-12-5.11v13.9A2.81,2.81,0,0,1,29.71,43H19.9a2.35,2.35,0,0,1-2.34-2.47V17.62A73.93,73.93,0,0,1,.62,1.22,68.63,68.63,0,0,0,0,9.11C0,30,9.56,48.89,24.56,62.75v-7.2A2.76,2.76,0,0,1,27.31,53h9.81a2.49,2.49,0,0,1,2.45,2.53v18a78.15,78.15,0,0,0,21,8.81V64.67A2.52,2.52,0,0,1,62.92,62h9.81a3,3,0,0,1,2.84,2.65V85.35a97.64,97.64,0,0,0,12.21.77,99.32,99.32,0,0,0,11.79-.71V64.67A2.57,2.57,0,0,1,102,62h9.81a2.89,2.89,0,0,1,2.78,2.65V82.45a84.59,84.59,0,0,0,19-8.1V55.56c0-1.37,1.62-2.53,3-2.53h9.81a2.3,2.3,0,0,1,2.2,2.53V64c16-14,26.39-33.42,26.39-54.93a68.7,68.7,0,0,0-.4-9.11Z"/></svg>