<svg id="Layer_1" data-name="Layer 1" xmlns="http://www.w3.org/2000/svg" width="337.15" height="295.34" viewBox="0 0 337.15 295.34"><defs><style>.cls-1{fill:none;stroke:#d9e021;}.cls-1,.cls-2{stroke-linecap:round;}.cls-1,.cls-4{stroke-miterlimit:10;}.cls-1,.cls-6{opacity:0.5;}.cls-2{fill:#00aa4d;stroke:#009245;stroke-linejoin:round;}.cls-2,.cls-4{stroke-width:4px;}.cls-3{fill:#006837;opacity:0.3;}.cls-4{fill:#f7931e;stroke:#f15a24;}.cls-5{fill:#a35414;opacity:0.1;}.cls-6{fill:#fbb03b;}.cls-7{fill:#42210b;}</style></defs><title>halloween graphics</title><line class="cls-1" x1="161.02" y1="42.11" x2="183.33" y2="24.67"/><path class="cls-2" d="M180.55,16.76l-2.68,13.46-4.16,20.93-14.4,3.42,2.41-19.81a12,12,0,0,0-.41-4.87l-4.58-15.38S180.55,3,180.55,16.76Z"/><polygon class="cls-2" points="132.13 51.14 125.65 31.96 143.46 45.66 152.36 36.76 155.78 47.72 190.72 20.32 186.61 46.35 216.74 35.73 173.52 68.09 135.24 69.46 132.13 51.14"/><polygon class="cls-3" points="139.14 56.6 134.24 42.09 147.71 52.46 154.44 45.72 157.04 54.01 183.46 33.28 180.35 52.98 203.16 44.94 170.46 69.42 141.49 70.46 139.14 56.6"/><path class="cls-4" d="M216,174.94c0,65.63-46,98.84-102.74,98.84S10.5,240.57,10.5,174.94,56.5,56.1,113.24,56.1,216,109.31,216,174.94Z"/><path class="cls-5" d="M118.25,261.26a156.9,156.9,0,0,1-77.4-20.18c18.41,20.13,43.24,32.47,70.57,32.47,21.49,0,41.44-7.64,57.94-20.69A158.45,158.45,0,0,1,118.25,261.26Z"/><path class="cls-4" d="M327.54,170.9c2.58,65.58-41.3,100.55-98,102.78S124.8,244.55,122.22,179s41.3-120.55,98-122.78S325,105.32,327.54,170.9Z"/><path class="cls-5" d="M251.57,257.44c-41.29,4.59-80.44-7-110.5-29.57C164,259.14,199.71,277,236.56,271.39a91.33,91.33,0,0,0,44.61-20.1A160,160,0,0,1,251.57,257.44Z"/><path class="cls-4" d="M283.4,180.66c-2.34,70.88-54.69,106.68-116.93,104.62S55.68,244.09,58,173.2,112.72,46.52,175,48.58,285.74,109.77,283.4,180.66Z"/><path class="cls-6" d="M175.21,93.82c49.18,1.61,88.84,42.43,96.28,95.08a129.7,129.7,0,0,0,1.19-13.68c2.11-63-41.53-115.57-97.47-117.4s-103,47.77-105.1,110.78a128.71,128.71,0,0,0,1.19,22.32C79.2,134.57,123.39,92.13,175.21,93.82Z"/><path class="cls-6" d="M64.73,115.75C74.43,94.26,89,76.1,106.63,63.09c-49.08,6.59-88.11,52.76-90,110a128.71,128.71,0,0,0,1.19,22.32C22.52,161.74,40.2,133,64.73,115.75Z"/><path class="cls-6" d="M238.65,64.46c17.64,13.75,31.77,32.79,40.73,55.05,21.6,17.23,36.79,43.82,41.11,74.39a129.7,129.7,0,0,0,1.19-13.68C323.6,122.76,287.46,74,238.65,64.46Z"/><path class="cls-7" d="M172.55,10c4.17,0,7.5,1.61,7.5,6.76l-2.68,13.46,0,.21,12.88-10.1-4.11,26,30.14-10.62-21,15.74a101.21,101.21,0,0,1,16.07,5.46c2.77-.37,5.58-.62,8.43-.73,1.19,0,2.37-.07,3.55-.07,55.14,0,101.25,50.58,103.77,114.78,2.58,65.58-41.3,100.55-98,102.78-1.12,0-2.24.07-3.36.09-16.21,7.7-34.87,11.59-54.67,11.59q-2.51,0-5.05-.08c-18.5-.61-35.8-4.5-50.9-11.53l-2.32,0C56,273.77,10,240.57,10,174.94S56,56.1,112.74,56.1a89.78,89.78,0,0,1,16.57,1.55c1.05-.48,2.11-.94,3.18-1.39l-.87-5.12L125.15,32,143,45.66l8.9-8.9,3.42,11,4.82-3.78,1.11-9.17a12,12,0,0,0-.41-4.87l-4.58-15.38S165.56,10,172.55,10m0-10h0c-8.83,0-18.77,4.59-20.68,5.51a10,10,0,0,0-5.23,11.86L149.52,27a10,10,0,0,0-4.74,2.65l-2.7,2.7L131.24,24a10,10,0,0,0-15.57,11.13l3.77,11.16q-3.36-.23-6.71-.23c-30.39,0-58.88,13.59-80.21,38.27C11.55,108.63,0,140.79,0,174.94c0,33.89,11.57,62,33.45,81.46,20.14,17.88,47.56,27.28,79.29,27.28h.21c15.82,7,33.53,10.91,52.69,11.55,1.79.06,3.6.11,5.38.11,20.76,0,39.92-3.9,57-11.63l1.45,0c31.66-1.24,58.56-11.77,77.8-30.45C328.06,233,338.37,204.4,337,170.51c-1.31-33.34-13.65-64.52-34.74-87.79-21.39-23.6-49.46-36.6-79-36.6-1.31,0-2.64,0-3.94.08l-.4,0,3.31-2.48a10,10,0,0,0-9.31-17.44l-14.32,5,1.49-9.46A10,10,0,0,0,189,10.4C186.63,4,180.61,0,172.55,0Z"/><path class="cls-5" d="M170.19,261.26A156,156,0,0,1,75.6,229.77c19.47,32.39,51.8,54.06,89,55.29,37.64,1.24,71.67-18.68,93.2-50.31A156.35,156.35,0,0,1,170.19,261.26Z"/></svg>